<?xml version="1.0" standalone="no"?>
<!DOCTYPE svg PUBLIC "-//W3C//DTD SVG 20010904//EN"
 "http://www.w3.org/TR/2001/REC-SVG-20010904/DTD/svg10.dtd">
<svg version="1.0" xmlns="http://www.w3.org/2000/svg"
 width="500.000000pt" height="500.000000pt" viewBox="0 0 500.000000 500.000000"
 preserveAspectRatio="xMidYMid meet">

<g transform="translate(0.000000,500.000000) scale(0.100000,-0.100000)"
fill="#000000" stroke="none">
<path d="M1650 3359 c-40 -16 -80 -60 -80 -88 0 -24 3 -23 52 24 l53 50 -44
-47 c-47 -50 -48 -73 -4 -48 32 18 60 56 69 93 7 30 -2 33 -46 16z"/>
<path d="M3300 3361 c0 -42 60 -121 92 -121 26 0 23 9 -24 60 -42 44 -42 44
10 -5 48 -46 52 -48 52 -25 -1 32 -16 52 -60 79 -37 22 -70 28 -70 12z"/>
<path d="M1490 3235 c-14 -29 -20 -54 -16 -70 9 -33 26 -32 27 3 l1 27 7 -29
c5 -24 8 -27 18 -15 18 22 24 61 15 93 -12 45 -27 42 -52 -9z m27 -27 c-3 -7
-5 -2 -5 12 0 14 2 19 5 13 2 -7 2 -19 0 -25z"/>
<path d="M3466 3272 c-2 -4 -7 -24 -11 -45 -6 -28 -3 -44 11 -65 l18 -27 7 30
7 30 1 -27 c1 -35 19 -36 27 -2 11 42 -42 135 -60 106z m21 -64 c-3 -8 -6 -5
-6 6 -1 11 2 17 5 13 3 -3 4 -12 1 -19z"/>
<path d="M2300 3230 c-109 -23 -245 -128 -295 -230 -23 -45 -26 -63 -22 -106
3 -28 11 -61 18 -72 29 -46 104 -67 129 -37 15 18 15 18 -27 34 -53 21 -67 45
-67 114 0 50 5 71 28 109 57 98 142 149 257 156 67 4 83 1 138 -23 65 -29 116
-78 127 -121 16 -62 -16 -155 -74 -218 -36 -37 -121 -86 -152 -86 -23 0 -90
-33 -90 -45 0 -2 23 -4 51 -3 44 0 54 -3 84 -32 18 -17 41 -47 51 -66 21 -38
22 -39 48 -19 19 14 19 15 1 56 -10 22 -35 54 -54 70 -19 15 -33 30 -30 32 2
2 22 14 44 28 98 58 170 153 175 229 6 77 0 100 -34 138 -72 80 -191 115 -306
92z"/>
<path d="M1582 3208 c-17 -17 -15 -28 6 -21 14 5 13 3 -3 -10 -20 -16 -19 -16
6 -17 29 0 82 36 74 51 -9 13 -69 11 -83 -3z"/>
<path d="M3335 3211 c-8 -14 44 -51 71 -51 26 0 33 27 12 48 -14 14 -74 16
-83 3z"/>
<path d="M1395 3120 c-26 -50 -16 -130 17 -130 4 0 8 8 9 18 0 11 2 12 6 4 9
-22 33 7 33 40 0 35 -25 98 -39 98 -6 0 -17 -13 -26 -30z m22 -77 c-3 -10 -5
-2 -5 17 0 19 2 27 5 18 2 -10 2 -26 0 -35z"/>
<path d="M3554 3115 c-16 -40 -18 -83 -4 -105 9 -13 11 -13 20 0 8 13 10 12
10 -2 0 -21 11 -23 28 -6 25 25 1 148 -28 148 -6 0 -18 -16 -26 -35z m33 -72
c-3 -10 -5 -2 -5 17 0 19 2 27 5 18 2 -10 2 -26 0 -35z"/>
<path d="M1496 3084 c-18 -18 -19 -24 -7 -43 13 -21 56 -6 81 29 l21 30 -40 0
c-23 0 -46 -7 -55 -16z m44 -9 c0 -2 -10 -9 -22 -15 -22 -11 -22 -10 -4 4 21
17 26 19 26 11z"/>
<path d="M3430 3070 c33 -46 89 -51 90 -8 0 19 -35 38 -71 38 l-40 0 21 -30z
m56 -6 c18 -14 18 -14 -6 -3 -31 14 -36 19 -24 19 6 0 19 -7 30 -16z"/>
<path d="M2305 3036 c-28 -19 -60 -50 -73 -69 -28 -42 -45 -149 -37 -225 27
-254 24 -290 -30 -348 -51 -54 -128 -46 -161 17 -10 20 -13 41 -8 62 9 44 22
57 55 57 31 0 53 -28 43 -54 -7 -19 5 -20 27 -3 23 18 30 45 17 72 -40 87
-198 -10 -198 -121 0 -60 58 -114 122 -114 38 0 142 78 178 133 l33 50 -9 101
c-11 125 -12 312 -2 348 12 40 56 88 83 88 12 0 33 9 46 20 l24 19 -30 1 c-18
0 -50 -13 -80 -34z"/>
<path d="M1315 2976 c-25 -60 -12 -146 22 -146 10 0 13 12 9 53 l-5 52 10 -53
c9 -44 13 -51 25 -41 20 16 17 73 -6 119 -27 54 -38 57 -55 16z"/>
<path d="M3652 2998 c-40 -51 -55 -135 -28 -157 12 -10 15 -8 19 11 l4 23 2
-22 c1 -31 25 -29 39 2 16 35 15 78 -2 120 -17 39 -19 41 -34 23z m5 -105 c-3
-10 -5 -4 -5 12 0 17 2 24 5 18 2 -7 2 -21 0 -30z"/>
<path d="M1438 2952 c-16 -9 -28 -25 -28 -35 0 -10 4 -15 10 -12 6 3 7 -1 4
-9 -9 -25 20 -19 54 9 16 14 32 34 35 45 4 16 0 20 -21 20 -15 0 -39 -8 -54
-18z m32 -16 c0 -2 -8 -10 -17 -17 -16 -13 -17 -12 -4 4 13 16 21 21 21 13z"/>
<path d="M3491 2948 c39 -76 99 -90 99 -24 0 17 -53 46 -84 46 -24 0 -26 -2
-15 -22z m83 -47 c-3 -3 -15 6 -27 18 l-22 24 27 -19 c14 -10 24 -21 22 -23z"/>
<path d="M1258 2834 c-13 -20 -20 -85 -14 -119 7 -36 40 -75 63 -75 9 0 8 13
-8 51 -11 29 -18 56 -17 61 2 5 12 -13 22 -41 10 -28 22 -51 27 -51 15 0 22
28 15 64 -7 36 -79 126 -88 110z"/>
<path d="M3708 2813 c-57 -61 -73 -126 -39 -157 46 -42 98 29 87 117 -7 66
-17 73 -48 40z m-12 -134 c-18 -41 -21 -26 -4 22 6 18 13 29 15 23 2 -6 -3
-26 -11 -45z"/>
<path d="M3540 2808 c0 -53 62 -105 94 -79 29 24 -6 74 -63 91 -27 8 -31 6
-31 -12z m66 -50 l29 -33 -32 29 c-31 28 -38 36 -30 36 2 0 16 -15 33 -32z"/>
<path d="M1386 2799 c-26 -21 -35 -62 -15 -74 30 -19 89 34 89 79 0 23 -42 20
-74 -5z m44 -12 c0 -2 -15 -16 -32 -33 l-33 -29 29 33 c28 30 36 37 36 29z"/>
<path d="M1394 2656 c-61 -27 -87 -100 -40 -112 30 -7 42 -1 60 34 16 33 28
92 18 92 -4 -1 -21 -7 -38 -14z m-16 -70 c-13 -19 -24 -33 -26 -31 -5 4 37 65
44 65 2 0 -6 -15 -18 -34z"/>
<path d="M3565 2638 c9 -39 31 -84 45 -93 6 -4 22 -4 36 -1 48 12 21 86 -42
112 -45 19 -47 19 -39 -18z m85 -82 c0 -11 0 -11 -29 34 l-23 35 26 -30 c14
-16 26 -34 26 -39z"/>
<path d="M2668 2653 c7 -3 16 -2 19 1 4 3 -2 6 -13 5 -11 0 -14 -3 -6 -6z"/>
<path d="M1210 2588 c0 -70 24 -123 62 -137 51 -19 77 44 44 108 -16 30 -80
91 -96 91 -6 0 -10 -28 -10 -62z m96 -125 c-5 -5 -66 110 -66 124 0 4 16 -21
36 -56 19 -35 33 -65 30 -68z"/>
<path d="M3735 2619 c-65 -57 -87 -140 -45 -167 48 -30 100 40 100 136 0 34
-4 62 -10 62 -5 0 -25 -14 -45 -31z m-5 -99 c-17 -34 -33 -60 -36 -57 -3 2 10
32 28 65 43 78 49 72 8 -8z"/>
<path d="M2502 2570 l-23 -19 47 -116 47 -117 14 33 c8 18 22 42 31 54 15 17
15 18 1 7 -15 -11 -20 -4 -48 68 -17 45 -31 86 -31 90 0 18 -16 18 -38 0z"/>
<path d="M1404 2490 c-29 -11 -74 -67 -74 -93 1 -52 17 -49 43 7 14 31 28 56
31 56 3 0 -6 -24 -19 -52 -26 -55 -19 -74 15 -43 21 19 34 67 28 107 -2 21 -7
24 -24 18z"/>
<path d="M3572 2445 c5 -61 29 -97 62 -93 50 7 48 58 -3 109 -54 54 -64 51
-59 -16z m48 -26 c12 -23 20 -43 18 -45 -3 -2 -14 17 -26 41 -27 56 -20 60 8
4z"/>
<path d="M1200 2403 c1 -91 51 -163 114 -163 l30 0 -26 28 c-14 15 -39 50 -57
77 -29 45 -29 46 -4 15 15 -19 43 -50 60 -70 l32 -35 1 35 c0 49 -38 100 -99
133 l-51 28 0 -48z"/>
<path d="M3750 2424 c-60 -34 -100 -87 -100 -133 l1 -36 32 35 c17 20 45 51
60 70 25 31 25 30 -4 -15 -18 -27 -43 -62 -57 -77 l-26 -28 31 0 c63 0 118 82
111 168 l-3 41 -45 -25z"/>
<path d="M2624 2301 c1 -25 6 -49 11 -53 15 -11 107 -9 125 2 12 7 8 10 -15
10 -41 0 -76 20 -100 56 l-21 31 0 -46z"/>
<path d="M1413 2298 c-42 -47 -57 -110 -31 -136 9 -9 9 -12 0 -12 -7 0 -12 4
-12 8 0 12 -68 48 -114 61 l-38 10 6 -42 c9 -56 59 -131 100 -151 39 -18 46
-19 65 -7 10 6 -6 28 -65 86 l-79 77 75 -66 c92 -82 124 -87 86 -14 -11 20
-12 37 -4 72 12 57 22 61 13 6 -8 -45 6 -54 29 -17 20 32 26 67 18 106 -9 43
-22 48 -49 19z"/>
<path d="M2926 2308 c3 -5 10 -6 15 -3 13 9 11 12 -6 12 -8 0 -12 -4 -9 -9z"/>
<path d="M3546 2312 c-3 -5 -8 -26 -11 -48 -11 -70 41 -136 80 -104 29 24 16
89 -28 138 -22 23 -33 27 -41 14z m53 -137 c0 -11 -7 0 -15 25 -7 25 -13 50
-13 55 1 18 27 -59 28 -80z"/>
<path d="M2899 2273 c-13 -16 -12 -17 4 -4 16 13 21 21 13 21 -2 0 -10 -8 -17
-17z"/>
<path d="M2862 2254 c-7 -8 -8 -14 -3 -14 10 0 25 19 20 25 -2 1 -10 -3 -17
-11z"/>
<path d="M3714 2209 c-57 -22 -119 -78 -129 -116 -12 -49 10 -42 85 25 41 37
62 51 45 31 -16 -19 -49 -51 -72 -70 -49 -38 -51 -45 -23 -54 33 -10 92 27
122 76 27 44 48 129 32 128 -5 0 -32 -9 -60 -20z"/>
<path d="M2606 2197 c3 -10 9 -15 12 -12 3 3 0 11 -7 18 -10 9 -11 8 -5 -6z"/>
<path d="M2740 2180 c8 -5 20 -10 25 -10 6 0 3 5 -5 10 -8 5 -19 10 -25 10 -5
0 -3 -5 5 -10z"/>
<path d="M2665 2160 c-3 -6 1 -7 9 -4 18 7 21 14 7 14 -6 0 -13 -4 -16 -10z"/>
<path d="M1473 2107 c-30 -45 -37 -82 -23 -117 18 -44 28 -37 35 28 9 82 16
89 10 10 -3 -55 -1 -68 10 -68 35 0 46 84 21 145 -8 19 -19 35 -23 35 -4 0
-18 -15 -30 -33z"/>
<path d="M3475 2106 c-26 -62 -15 -146 20 -146 11 0 13 13 10 68 -6 79 1 72
10 -10 4 -32 10 -58 14 -58 11 0 31 46 31 70 0 29 -29 85 -51 99 -18 10 -21 8
-34 -23z"/>
<path d="M1280 1996 c0 -18 45 -95 74 -124 55 -59 112 -77 151 -48 18 13 16
15 -25 36 -49 25 -150 90 -150 97 0 3 15 -4 33 -15 138 -85 152 -91 155 -72 9
51 -83 115 -182 126 -31 4 -56 4 -56 0z"/>
<path d="M3625 1991 c-50 -13 -111 -48 -129 -76 -25 -37 -17 -88 16 -99 37
-13 73 0 119 41 33 30 89 116 89 138 0 7 -59 5 -95 -4z m25 -51 c-36 -29 -150
-93 -156 -88 -4 4 163 106 176 107 3 0 -6 -8 -20 -19z"/>
<path d="M1581 1940 c-36 -60 -21 -170 23 -170 10 0 11 10 5 43 -4 23 -8 58
-7 77 0 22 5 7 13 -40 7 -41 13 -77 14 -79 0 -2 8 2 16 9 29 24 14 120 -28
175 -14 19 -15 18 -36 -15z"/>
<path d="M3369 1933 c-29 -47 -38 -133 -15 -152 19 -16 21 -12 34 74 5 33 10
47 10 30 1 -16 -3 -49 -7 -72 -6 -33 -5 -43 5 -43 43 0 59 110 24 168 -11 17
-22 32 -24 32 -2 0 -15 -16 -27 -37z"/>
<path d="M2489 1933 c-13 -16 -12 -17 4 -4 9 7 17 15 17 17 0 8 -8 3 -21 -13z"/>
<path d="M2487 1796 c-4 -10 -1 -13 8 -9 8 3 12 9 9 14 -7 12 -11 11 -17 -5z"/>
<path d="M1719 1762 c-15 -51 -4 -108 26 -138 45 -45 55 -31 29 41 -13 36 -24
71 -23 78 0 7 9 -11 19 -39 36 -102 60 -120 60 -45 0 27 -10 54 -32 87 -43 63
-63 67 -79 16z"/>
<path d="M3210 1758 c-34 -47 -43 -73 -38 -114 6 -50 24 -36 49 36 13 39 25
67 27 62 1 -5 -8 -39 -21 -76 -20 -52 -22 -66 -10 -66 24 0 61 46 69 85 8 45
-11 115 -31 115 -8 0 -29 -19 -45 -42z"/>
<path d="M1406 1771 c-4 -6 2 -23 12 -39 76 -105 192 -152 244 -100 l22 22
-48 12 c-54 14 -159 55 -153 60 2 2 45 -10 96 -27 51 -17 95 -28 98 -25 10 10
-31 59 -67 80 -39 23 -193 36 -204 17z"/>
<path d="M2400 1776 c0 -2 7 -7 16 -10 8 -3 12 -2 9 4 -6 10 -25 14 -25 6z"/>
<path d="M3428 1770 c-45 -14 -86 -42 -98 -68 -6 -13 -9 -27 -6 -29 3 -3 46 9
97 26 51 17 94 29 96 27 6 -6 -119 -54 -160 -61 -43 -8 -46 -18 -15 -39 52
-37 139 -6 211 74 26 29 46 58 44 64 -4 13 -131 18 -169 6z"/>
<path d="M1916 1663 c-3 -3 -6 -30 -6 -58 0 -118 129 -194 138 -82 3 29 -3 43
-32 74 -38 42 -90 76 -100 66z m79 -121 c20 -30 34 -56 32 -58 -6 -6 -38 39
-62 86 -22 44 -16 38 30 -28z"/>
<path d="M3033 1641 c-61 -44 -84 -79 -81 -119 4 -43 27 -60 65 -46 45 15 73
67 73 135 0 33 -4 59 -8 59 -5 0 -27 -13 -49 -29z m2 -72 c-25 -45 -69 -103
-63 -84 4 15 83 134 86 131 1 -2 -9 -23 -23 -47z"/>
<path d="M1617 1575 c-21 -7 -41 -16 -44 -19 -3 -3 10 -21 30 -40 84 -79 209
-106 261 -57 14 14 26 28 26 31 0 4 -37 10 -82 13 -46 4 -96 11 -113 17 -25 8
-22 9 25 5 30 -2 82 -7 115 -11 l59 -7 -15 24 c-26 40 -76 59 -154 59 -38 -1
-87 -7 -108 -15z"/>
<path d="M3171 1573 c-19 -10 -41 -29 -50 -42 l-15 -23 49 5 c28 4 79 9 115
11 52 5 59 4 35 -4 -16 -6 -67 -13 -112 -17 -46 -3 -83 -10 -83 -14 0 -17 45
-49 76 -55 47 -9 131 20 188 63 27 21 51 43 53 49 6 20 -51 37 -137 41 -68 3
-92 1 -119 -14z"/>
<path d="M2140 1541 c0 -43 17 -82 53 -118 24 -26 39 -33 69 -33 21 0 38 2 38
4 0 2 -30 34 -67 71 l-68 68 70 -62 c38 -33 73 -61 77 -61 5 0 8 11 8 24 0 47
-75 111 -152 130 -26 6 -28 4 -28 -23z"/>
<path d="M2820 1561 c-75 -23 -140 -82 -140 -127 0 -13 3 -24 8 -24 4 0 39 28
77 61 l70 62 -67 -68 c-38 -37 -68 -69 -68 -71 0 -8 60 -4 82 7 35 15 70 73
76 124 5 47 3 48 -38 36z"/>
<path d="M1940 1441 c-36 -11 -128 -59 -134 -70 -4 -5 24 -24 60 -42 117 -58
234 -48 274 23 19 34 12 40 -31 28 -19 -6 -77 -13 -129 -15 l-95 -5 99 15
c139 20 156 24 150 39 -12 32 -126 47 -194 27z"/>
<path d="M2885 1428 l-28 -25 29 -7 c16 -5 76 -14 134 -22 l105 -13 -100 4
c-55 2 -115 9 -134 15 -43 12 -47 8 -31 -29 17 -41 80 -65 154 -59 59 5 191
62 180 79 -3 5 -33 24 -67 41 -48 24 -79 32 -138 36 -69 4 -78 2 -104 -20z"/>
<path d="M2317 1379 c-20 -5 -54 -17 -75 -28 -40 -20 -142 -107 -142 -121 0
-14 87 -30 162 -30 116 1 188 44 188 113 0 16 -3 27 -7 25 -45 -22 -118 -54
-162 -69 -91 -32 -92 -20 -1 14 47 18 103 42 124 54 36 18 38 21 20 30 -32 17
-67 21 -107 12z"/>
<path d="M2603 1379 c-18 -5 -34 -13 -37 -18 -6 -9 155 -84 207 -97 15 -3 26
-9 23 -11 -7 -8 -108 24 -180 57 l-66 29 0 -27 c0 -68 73 -111 188 -112 74 0
162 16 162 30 0 18 -105 103 -153 125 -65 29 -103 35 -144 24z"/>
</g>
</svg>
